<svg xmlns="http://www.w3.org/2000/svg" width="682.667" height="682.667" viewBox="0 0 512 512"><path d="M171.4 1.1c-1.1.6-5.4 5.5-9.5 10.9-4.1 5.5-8.1 10.1-8.9 10.4s-18.8 4.4-40 9.1-39.7 9-41.3 9.7c-3 1.2-11.3 12.9-16.5 23.3-6.9 13.9-12.7 35.3-15.6 57.6-3.2 24.3-3.7 51.9-3.4 179.9l.3 126.5 2.4 3.8c1.3 2.1 4.2 5 6.4 6.5 4 2.7 4.1 2.7 25.9 3 19.8.3 21.8.5 21.8 2.1 0 .9-1.8 13.4-4 27.6-4.7 30.9-4.9 33.4-1.6 37.2l2.4 2.8 56.8.3c64.8.3 67.1.1 81.2-6.8 9.7-4.8 18-11.5 24-19.3l4.4-5.6 4.5 5.9c8.7 11.7 24.4 21.4 39.6 24.4 6.7 1.4 8.1 1.4 11.1.2 4.2-1.7 5.6-4.2 5.6-9.4 0-5.4-3.7-8.5-12.1-10.1-18.8-3.7-34-18.6-37.8-36.9-.7-3.5-1.1-23.1-1.1-56.4v-51.1l52.2-113.1c28.6-62.2 52.5-114.5 53-116.1.6-1.9.6-3.9 0-5.5-.6-1.4-6.2-8.2-12.6-15.2S347 83.9 347 83.7c0-.3 3.3-3.6 7.3-7.3 21-19.9 22.7-21.8 22.7-25.7 0-3.4.2-3.7 2.3-3.2 1.2.3 11.9 2.7 23.7 5.4 19.1 4.3 21.5 5 21.3 6.7-.1 1-9.7 63.5-21.3 138.9l-21 137 2.8 18 2.8 18-24.8.5-24.8.5-2.7 2.8c-4.1 4-3.9 9.9.5 13.8l3.2 2.9h26c16.4 0 26 .4 26 1 0 1 13.5 91.3 14.4 96.1.5 2.6.4 2.7-6.1 3.1-5.7.4-6.9.8-8.9 3.2-3.3 3.7-3.2 9.5 0 13.3l2.4 2.8h29.4l2.4-2.8c3.3-3.8 3.1-6.3-1.6-37.2-2.2-14.2-4-26.7-4-27.6 0-1.6 2-1.8 21.8-2.1 21.8-.3 21.9-.3 25.9-3 2.2-1.5 5.1-4.4 6.4-6.5l2.4-3.8.3-126.5c.3-128-.2-155.6-3.4-179.9-2.9-22.3-8.7-43.7-15.6-57.6-5.2-10.3-13.5-22.1-16.5-23.4-1.6-.6-20.7-5.1-42.6-10-30.7-6.9-40.2-9.4-41.2-10.8-5.4-7.6-14-18-15.8-19-2.8-1.6-166-1.7-169.3-.2M188 21c0 .5 10.1 56.4 22.5 124.1 12.4 67.8 22.5 123.7 22.5 124.3 0 .8-44.4-94.6-68.4-147l-2.5-5.5 12.5-13.7c6.9-7.5 13.3-15 14.1-16.5 3-5.8 2.1-7-23-30.6-3.8-3.5-6.6-6.9-6.4-7.5.3-.6 3.7-5.4 7.7-10.6 14-18.2 13.8-18 17.6-18 1.9 0 3.4.4 3.4 1m115.8.7c-.3 1-11 59.5-23.9 130C267.1 222.3 256.3 280 256 280s-11.1-57.7-23.9-128.3c-12.9-70.5-23.6-129-23.9-130-.4-1.6 2.4-1.7 47.8-1.7s48.2.1 47.8 1.7m38.4 12.8c5.9 7.7 10.7 14.4 10.7 15-.1.5-6.8 7.2-14.9 14.8-15.3 14.2-17.1 16.7-15.1 21.8.5 1.3 6.8 8.8 14 16.6l13 14.2-2.5 5.5C323 175.7 279 270.2 279 269.4c0-.6 10.1-56.6 22.5-124.3C313.9 77.3 324 21.4 324 20.9c0-.6 1.7-.9 3.7-.7 3.5.3 4.4 1.1 14.5 14.3M135 50.1c0 1.7.4 3.8.9 4.8.6 1 7.2 7.6 14.8 14.7 7.6 7 13.9 13.2 14.1 13.6s-4.9 6.5-11.3 13.5c-12.2 13.3-14 16.2-13 20.1.3 1.3 24.2 53.5 53 116.1L246 346.7v51.1c0 33.6-.4 52.9-1.1 56.3-3.4 15.6-14.9 29-30.2 35l-6.2 2.4-51.2.3-51.3.3.5-2.8c.9-4.9 14.5-95.3 14.5-96.3 0-.6 9.6-1 26-1h26l3.2-2.9c4.4-3.9 4.6-9.8.5-13.8l-2.7-2.8-24.8-.5-24.8-.5 2.8-18.2 2.8-18.1-10.9-70.4c-5.9-38.7-11.3-71.4-12-72.6-.6-1.2-2.6-2.9-4.3-3.8-2.6-1.3-3.8-1.4-6.9-.5-4.8 1.4-6.9 4.4-6.9 9.6.1 2.2 4.7 34 10.4 70.7l10.3 66.8-6.6 43.5-6.5 43.5H55.9l.4-138.3c.4-148.3.5-149 5.7-175.5 2.1-10.5 6.2-24.5 8-27.2.8-1.2 1-1 1 1 0 1.4 1.1 9 2.4 17 2.2 12.9 2.7 14.7 5.1 16.7 3.1 2.7 9 3.1 12.1.8 4.8-3.3 4.9-5.5 1-31.2-2-13.1-3.8-24.7-3.9-25.7-.2-1.7 2.4-2.5 22.8-7.2 12.7-2.8 23.3-5.3 23.8-5.3.4-.1.7 1.3.7 3m310.5 40.4c3.5 11.2 6.2 25.2 8.2 41.8 1.5 12.5 1.7 30.4 2 151.9l.4 137.8h-40.7l-6.5-43.5-6.6-43.5 19.6-127.4c10.8-70.1 19.9-126.9 20.4-126.3.4.7 1.8 4.8 3.2 9.2"/><path d="M84.9 145.9c-4.9 4.9-3.5 12.6 2.8 15.6 8.1 3.9 16.1-3.4 13.3-12-2.2-6.7-11-8.7-16.1-3.6m263.5 347c-5.6 2.4-7.2 10.9-3 15.8 2 2.3 3.2 2.8 7.1 2.8 6 0 9.5-3.5 9.5-9.5 0-7-7.2-11.8-13.6-9.1"/></svg>