<svg xmlns="http://www.w3.org/2000/svg" width="682.667" height="682.667" viewBox="0 0 512 512"><path d="M199.1 9.5c-8.6 1.6-19.5 6.6-21.8 10.1-1.3 2-1.5 4.1-.9 11.3 1.2 15.8 6.8 35.1 18.9 64.6C201.6 111 207 127 207 130.2c0 .8-1.7 2.7-3.8 4.1-9.4 6.1-19.8 18.7-27.7 33.1-11.3 20.8-18.7 42.1-37.1 106.5-20.5 71.8-30.6 100.7-46 131.4-11.8 23.6-22.8 40.1-37.3 56-8.5 9.3-9 11.6-3.5 17.6 11.5 12.8 30.3 17.3 48.1 11.6 13-4.1 20.7-3.1 32.2 4.3 10.6 7 16 8.6 28.1 8.6s17.5-1.6 28.1-8.6c3.5-2.3 8.4-4.7 10.8-5.5 9.1-2.7 19.2-1.1 27.2 4.4 18.9 13 37.7 13.7 55.9 2.3 9.2-5.7 12.7-7.2 19.2-7.8 7.4-.6 14 1.1 20.4 5.2 2.7 1.9 7 4.4 9.5 5.6 14.4 7.4 32 6.4 45.9-2.4 14.1-9.1 21.3-10.3 34.9-6.2 18.7 5.7 36.9 1.4 48.5-11.5 5.5-6 5-8.3-3.5-17.6-14.5-15.9-25.7-32.8-37.4-56.2-15.3-30.4-25.7-60.1-45-128.1-14.1-49.5-21.8-73.6-29.4-91.6-9.6-22.6-21.8-40.3-33.8-49.2-3.4-2.6-6.3-5.4-6.3-6.1 0-3.1 5.5-19.3 11.7-34.6 12.1-29.5 17.7-48.8 18.9-64.6.6-7.2.4-9.3-.9-11.3-3.8-5.7-21.8-11.5-36.2-11.6-13 0-27.1 5.4-36.9 14.2l-5.6 5-5.6-5c-13.5-12.1-30.9-16.4-51.3-12.7m31.1 18.3c4.8 2.3 8.7 5.4 14.6 11.7 10.8 11.3 11.2 11.3 22.9-.3 6-6.1 10.7-9.8 14.8-11.8 5.5-2.6 6.9-2.9 16.5-2.9 10.1 0 21 2.3 21 4.4 0 .5-.7 4.6-1.5 9.2-2.3 13.1-6 24.7-15.3 47.9-4.7 11.8-10 26.7-11.7 33l-3.2 11.5-8.9 2.4c-12.8 3.4-34 3.4-46.8 0l-8.9-2.4-3.2-11.5c-1.7-6.3-7-21.2-11.7-33-4.8-11.8-9.8-25.6-11.2-30.5-2.5-8.6-5.6-23.1-5.6-26 0-1.2 6.2-3.8 12-4.9 1.4-.2 6.4-.3 11.1-.2 7.4.2 9.6.7 15.1 3.4m-3.4 120.1c20.2 5.6 40.7 5.3 62.5-1.1l6.9-1.9 3.9 2.6c9.4 6.6 18.3 18.8 26.9 36.9 9.6 20.2 15.9 39.3 32 96.6 19.4 69.6 31 102 48.9 136.6 8.8 17.1 19.8 34.1 29.7 45.8 6.3 7.5 6.6 8 4.8 9.4-6.3 4.7-15.4 5.4-26 2-5.4-1.8-9.1-2.3-17.4-2.2-12 0-17 1.6-27.2 8.6-12.9 8.7-26.2 9.1-37.9 1.1-10.5-7.2-19.4-10.3-29.9-10.3s-19.4 3.1-29.9 10.3c-2.4 1.6-6.4 3.6-8.9 4.3-9.2 2.8-19.3 1.2-27.3-4.3-20.1-13.8-39.6-13.8-59.4-.3-8.5 5.8-19.1 7.5-28 4.4-2.6-.8-7.6-3.5-11.3-5.8-10.6-6.8-15-8.1-27.2-8-7.4 0-11.8.6-15 1.8-9.7 3.7-21.1 3.2-26.9-1.3l-2.4-1.8 5.5-6.5c16.7-19.7 31.4-44.9 45.3-77.9 8-18.9 20.9-57.9 31.5-95.4 20.2-71.4 25.2-86.6 34.9-107 9.1-18.9 15.2-27.6 25.5-35.7 3.4-2.7 5.6-3.8 7-3.5 1.2.3 5.4 1.5 9.4 2.6"/><path d="M203.1 177.7c-2.9 2.4-11.8 29.4-18.1 54.8-5.8 23.1-9 41.5-12 67.5-7.2 63.4-14.5 92.8-31.1 126.2-3.3 6.5-5.9 12.9-5.9 14.3 0 5.4 7 9.2 12.1 6.5 2.3-1.3 11-18.3 17.2-34 11.7-29.4 17.3-56 23.7-111.5 4.1-36.2 11.2-69 21.6-100.2 3-8.9 5.4-17.2 5.4-18.3 0-3.1-4.4-7-7.8-7-1.7 0-3.9.8-5.1 1.7m65.2-.5c-4 1.9-4.7 5.7-2.9 15.5 4.4 24.5 6.3 45.3 7.6 82.8 1.3 34.7 3.3 63.1 6 85.5 4.2 33.1 15.5 81.6 20 85.2 3.2 2.6 7.6 2.3 10.5-.7 3.2-3.1 3.1-4.5-.5-17-12-41.2-17.5-83.4-20-154.5-1.3-36.7-3-55.1-7.6-82.5-2-12-2.1-12.3-5.4-14s-4.6-1.8-7.7-.3m30.2 1.3c-1.4 1.3-2.5 3.3-2.5 4.5 0 1.1 2.4 9.4 5.4 18.3 10.4 31.2 17.5 64 21.6 100.2 6.3 55 11.9 81.4 23.5 111 5.8 14.9 15 33.2 17.4 34.5 5.1 2.7 12.1-1.1 12.1-6.5 0-1.4-2.5-7.6-5.6-13.8-15.2-30.1-23-59.1-29-107.2-6.5-52.4-8.8-66.2-15.9-93.4-5.8-22.1-14.3-46.9-16.8-48.6-3.2-2.2-7.4-1.9-10.2 1m-64.2.7c-1.6 1.7-2.6 5.4-4.2 15.3-4.5 27.9-5.8 42.5-7.1 79.5-2.5 70.5-7.6 109.8-19.6 152.7-1.9 6.8-3.4 13.2-3.4 14.3 0 3.1 4.4 7 7.8 7 5.1 0 7-2.7 10.3-14 12.8-44.6 18.3-86.1 20.9-161 1.2-31.2 2.7-48.9 6.6-73.9 2.5-16.3 2.5-16.5.6-19-2.7-3.7-8.9-4.1-11.9-.9"/></svg>